<svg width="668" height="667" viewBox="0 0 668 667" fill="none" xmlns="http://www.w3.org/2000/svg">
<path d="M334 0C150 0 0.666748 149.333 0.666748 333.333C0.666748 517.333 150 666.667 334 666.667C518 666.667 667.333 517.333 667.333 333.333C667.333 149.333 518 0 334 0ZM154 307.667C159.667 268 177.333 232.333 205 204.333C271.667 138 376.667 134.333 448 192.333V160.667C448 147 459.333 135.667 473 135.667C486.667 135.667 498 147 498 160.667V249.667C498 263.333 486.667 274.667 473 274.667H384C370.333 274.667 359 263.333 359 249.667C359 236 370.333 224.667 384 224.667H409C357.333 188.667 286 193.667 240 239.667C220 259.667 207.333 285.667 203 314.667C201.333 327 190.667 336 178.333 336C177 336 176 336 174.667 335.667C161.667 334 152 321.333 154 307.667ZM463 462.333C427.333 498 380.667 515.667 334 515.667C293.333 515.667 253 501.333 219.667 474.333V505.667C219.667 519.333 208.333 530.667 194.667 530.667C181 530.667 169.667 519.333 169.667 505.667V416.667C169.667 403 181 391.667 194.667 391.667H283.667C297.333 391.667 308.667 403 308.667 416.667C308.667 430.333 297.333 441.667 283.667 441.667H258.667C310.333 477.667 381.667 472.667 427.667 426.667C447.667 406.667 460.333 380.667 464.667 351.667C466.667 338 479 328.333 493 330.333C506.667 332.333 516 345 514.333 358.667C508.333 399 490.667 434.667 463 462.333Z" fill="#F9F9F9"/>
</svg>
